<?xml version="1.0" encoding="iso-8859-1"?>
<!-- Generator: Adobe Illustrator 19.0.0, SVG Export Plug-In . SVG Version: 6.00 Build 0)  -->
<svg version="1.1" id="Capa_1" xmlns="http://www.w3.org/2000/svg" xmlns:xlink="http://www.w3.org/1999/xlink" x="0px" y="0px"
	 viewBox="0 0 512 512" style="enable-background:new 0 0 512 512;" xml:space="preserve">
<g>
	<g>
		<path d="M458.737,422.218l-22.865-288.115C434.448,115.54,418.749,101,400.133,101h-45.162v-2.03
			c0-54.573-44.397-98.97-98.969-98.97c-54.572,0-98.969,44.397-98.969,98.969v2.03h-45.162c-18.617,0-34.316,14.54-35.736,33.064
			L53.262,422.257c-1.77,23.075,6.235,46.048,21.961,63.026C90.949,502.261,113.242,512,136.385,512h239.232
			c23.142,0,45.436-9.738,61.162-26.717C452.504,468.304,460.509,445.332,458.737,422.218z M187.022,98.969
			c0-38.035,30.945-68.979,68.979-68.979s68.979,30.945,68.979,68.979v2.03H187.022V98.969z M414.777,464.905
			c-10.218,11.03-24.124,17.105-39.16,17.105H136.386c-15.036,0-28.942-6.075-39.16-17.105
			c-10.217-11.031-15.211-25.363-14.063-40.315l22.87-288.195c0.232-3.032,2.796-5.406,5.837-5.406h45.162v36.935
			c0,8.281,6.714,14.995,14.995,14.995c8.281,0,14.995-6.714,14.995-14.995v-36.935h137.959v36.935
			c0,8.281,6.714,14.995,14.995,14.995c8.281,0,14.995-6.714,14.995-14.995v-36.935h45.162c3.041,0,5.604,2.374,5.84,5.446
			l22.865,288.115C429.988,439.542,424.993,453.873,414.777,464.905z"/>
	</g>
</g>
<g>
	<g>
		<path d="M256.002,209.281c-47.638,0-86.394,38.756-86.394,86.394c0,45.83,41.332,82.188,63.537,101.72
			c2.868,2.522,5.344,4.7,7.25,6.481c4.377,4.089,9.992,6.133,15.608,6.133c5.615,0,11.231-2.044,15.606-6.132
			c1.906-1.781,4.384-3.96,7.251-6.482c22.205-19.534,63.537-55.891,63.537-101.72C342.395,248.037,303.639,209.281,256.002,209.281
			z M259.051,374.877c-1.067,0.939-2.083,1.832-3.049,2.687c-0.966-0.855-1.982-1.749-3.049-2.687
			c-18.647-16.402-53.355-46.934-53.355-79.203c0-31.102,25.303-56.404,56.404-56.404c31.102,0,56.404,25.303,56.404,56.404
			C312.405,327.943,277.698,358.474,259.051,374.877z"/>
	</g>
</g>
<g>
	<g>
		<path d="M256.002,257.637c-20.215,0-36.661,16.446-36.661,36.661c0,20.214,16.446,36.661,36.661,36.661
			c20.214,0,36.661-16.446,36.661-36.661C292.662,274.083,276.216,257.637,256.002,257.637z M256.002,300.968
			c-3.679,0-6.671-2.993-6.671-6.671c0-3.678,2.993-6.671,6.671-6.671c3.678,0,6.671,2.993,6.671,6.671
			C262.673,297.975,259.68,300.968,256.002,300.968z"/>
	</g>
</g>
<g>
</g>
<g>
</g>
<g>
</g>
<g>
</g>
<g>
</g>
<g>
</g>
<g>
</g>
<g>
</g>
<g>
</g>
<g>
</g>
<g>
</g>
<g>
</g>
<g>
</g>
<g>
</g>
<g>
</g>
</svg>
